# xmcd
#
# Track frame offsets:
# 150
# 15289
# 30708
# 45710
# 58886
# 77399
# 94448
# 114215
# 130888
# 150459
# 169528
#
# Disc length: 2528 seconds
#
#
# Revision: 0
# Processed by: cddbd v1.5.2PL0 Copyright (c) Steve Scherf et al.
# Submitted via: FreeRIP 2.945 
#
DISCID=7a09de0b
DTITLE=Montgomery Gentry - Some People Change
DYEAR=2006
DGENRE=Country
TTITLE0=Some People Change
TTITLE1=Hey Country
TTITLE2=Lucky Man
TTITLE3=Takes All Kinds
TTITLE4=Your Tears Are Comin
TTITLE5=Clouds
TTITLE6=20 Years Ago
TTITLE7=What Do You Think About That
TTITLE8=Redder Than That
TTITLE9=Mans Job
TTITLE10=If You Wanna Keep An Angel
EXTD=
EXTT0=
EXTT1=
EXTT2=
EXTT3=
EXTT4=
EXTT5=
EXTT6=
EXTT7=
EXTT8=
EXTT9=
EXTT10=
PLAYORDER=
